<svg width="50" height="50" viewBox="0 0 50 50" fill="none" xmlns="http://www.w3.org/2000/svg">
<path d="M28.0796 11.977C29.9184 12.6169 31.5124 13.8134 32.6402 15.4004C33.7681 16.9875 34.3738 18.8863 34.3734 20.8332V28.5416L38.6921 32.5728C38.8446 32.7155 38.9506 32.9008 38.9965 33.1045C39.0423 33.3082 39.0259 33.521 38.9493 33.7153C38.8727 33.9095 38.7395 34.0763 38.567 34.1939C38.3944 34.3115 38.1905 34.3746 37.9817 34.3749H12.0171C11.8077 34.3755 11.6029 34.3129 11.4296 34.1953C11.2563 34.0777 11.1224 33.9106 11.0455 33.7158C10.9685 33.521 10.9521 33.3076 10.9984 33.1033C11.0446 32.899 11.1513 32.7134 11.3046 32.5707L15.6234 28.5416V20.8332C15.623 18.8863 16.2287 16.9875 17.3565 15.4004C18.4844 13.8134 20.0783 12.6169 21.9171 11.977C22.0403 11.2488 22.4173 10.5879 22.9813 10.1112C23.5453 9.63456 24.2599 9.37305 24.9984 9.37305C25.7368 9.37305 26.4514 9.63456 27.0155 10.1112C27.5795 10.5879 27.9565 11.2488 28.0796 11.977Z" stroke="black" stroke-linecap="round" stroke-linejoin="round"/>
<path d="M22.0508 38.542C22.2655 39.1524 22.6644 39.6811 23.1925 40.0551C23.7205 40.4291 24.3516 40.63 24.9987 40.63C25.6458 40.63 26.2769 40.4291 26.8049 40.0551C27.333 39.6811 27.7319 39.1524 27.9466 38.542H22.0508Z" stroke="black"/>
</svg>
