<svg width="70" height="70" viewBox="0 0 70 70" fill="none" xmlns="http://www.w3.org/2000/svg">
<rect width="70" height="70" rx="20" fill="black"/>
<path d="M30.3594 24.9375L34.3203 33.082L38.2812 24.9375H41.5391L35.7969 35.7188V42H32.832V35.7188L27.0898 24.9375H30.3594Z" fill="white"/>
<path d="M10 31.0519C10 29.0257 10.0325 27.0442 10.1 25.1311C10.3075 18.8866 10.4125 15.763 12.8251 13.2025C15.2376 10.6447 18.2902 10.5079 24.3903 10.2316C27.9251 10.0754 31.4626 9.99819 35.0005 10C38.7006 10 42.2632 10.079 45.6108 10.2316C51.7109 10.5079 54.761 10.6447 57.176 13.2052C59.5886 15.763 59.6936 18.8866 59.9011 25.1311C60.033 29.0771 60.033 33.0267 59.9011 36.9727C59.6936 43.2172 59.5886 46.3408 57.176 48.9013C54.7635 51.4591 51.7109 51.5959 45.6108 51.8722C43.7741 51.9547 41.8782 52.0161 39.9232 52.0564C38.0731 52.0932 37.1456 52.109 36.3306 52.438C35.5156 52.7669 34.8305 53.38 33.4605 54.6168L28.0129 59.5377C27.7478 59.7768 27.423 59.9309 27.0772 59.9816C26.7314 60.0323 26.379 59.9776 26.0619 59.8238C25.7447 59.6701 25.4762 59.4238 25.288 59.1142C25.0998 58.8046 25 58.4447 25.0003 58.0772V51.8985L24.3903 51.8722C18.2902 51.5959 15.2401 51.4591 12.8251 48.8986C10.4125 46.3408 10.3075 43.2172 10.1 36.9727C10.0337 34.9999 10.0004 33.026 10 31.0519Z" stroke="white" stroke-width="3" stroke-linecap="round" stroke-linejoin="round"/>
</svg>
