<svg width="30" height="30" viewBox="0 0 30 30" fill="none" xmlns="http://www.w3.org/2000/svg">
<path d="M20.5961 15.6595C23.16 15.6595 25.2493 13.3758 25.2493 10.597C25.2493 7.8499 23.1707 5.67383 20.5961 5.67383C18.0429 5.67383 15.9423 7.88204 15.9423 10.6185C15.953 13.3865 18.0429 15.6595 20.5961 15.6595ZM8.18679 15.8963C10.4057 15.8963 12.2261 13.9035 12.2261 11.4585C12.2261 9.06704 10.4271 7.13901 8.18679 7.13901C5.96786 7.13901 4.13679 9.09972 4.1475 11.4799C4.15821 13.9147 5.96786 15.8963 8.18679 15.8963ZM20.5961 14.0331C19.0232 14.0331 17.6764 12.5251 17.6764 10.6185C17.6764 8.74347 19.0018 7.30079 20.5961 7.30079C22.2011 7.30079 23.5152 8.72258 23.5152 10.5965C23.5152 12.5037 22.1904 14.0331 20.5961 14.0331ZM8.18679 14.2913C6.87268 14.2913 5.7525 13.0313 5.7525 11.4799C5.7525 9.96115 6.86143 8.74401 8.18679 8.74401C9.54375 8.74401 10.6318 9.93972 10.6318 11.4585C10.6318 13.0313 9.51161 14.2913 8.18679 14.2913ZM2.1975 25.7744H10.6537C10.1362 25.4835 9.73768 24.8369 9.81321 24.1801H1.92857C1.71321 24.1801 1.60554 24.0944 1.60554 23.8892C1.60554 21.2181 4.65375 18.719 8.17661 18.719C9.53357 18.719 10.7507 19.042 11.7959 19.656C12.1426 19.217 12.5528 18.8323 13.013 18.5144C11.6234 17.5983 9.95411 17.1247 8.17661 17.1247C3.66268 17.1247 0 20.399 0 23.9862C0 25.1819 0.732322 25.7744 2.1975 25.7744ZM13.8311 25.7744H27.3611C29.1487 25.7744 30 25.236 30 24.051C30 21.2288 26.4343 17.1456 20.5961 17.1456C14.7466 17.1456 11.1814 21.2288 11.1814 24.051C11.1814 25.236 12.0321 25.7744 13.8311 25.7744ZM13.3141 24.1479C13.0339 24.1479 12.9155 24.0729 12.9155 23.8463C12.9155 22.0795 15.6514 18.7731 20.5961 18.7731C25.53 18.7731 28.2654 22.0795 28.2654 23.8463C28.2654 24.0724 28.1582 24.1479 27.8775 24.1479H13.3141Z" fill="white"/>
</svg>
