<svg width="50" height="50" viewBox="0 0 50 50" fill="none" xmlns="http://www.w3.org/2000/svg">
<path d="M38.125 27.5C38.125 28.3288 37.7958 29.1237 37.2097 29.7097C36.6237 30.2958 35.8288 30.625 35 30.625C34.1712 30.625 33.3763 30.2958 32.7903 29.7097C32.2042 29.1237 31.875 28.3288 31.875 27.5C31.875 26.6712 32.2042 25.8763 32.7903 25.2903C33.3763 24.7042 34.1712 24.375 35 24.375C35.8288 24.375 36.6237 24.7042 37.2097 25.2903C37.7958 25.8763 38.125 26.6712 38.125 27.5ZM50 25C50 38.75 38.75 50 25 50H0V25C0 11.25 11.25 0 25 0C38.75 0 50 11.25 50 25ZM12.5 40C16.025 43.075 20 45 25 45C36.025 45 45 36.025 45 25C45 23.025 44.7 21.125 44.175 19.35C42.375 19.775 40.5 20 38.55 20C33.55 20 28.925 18.5 25 15.975C25 15.975 21.35 29.4 15.075 27.5C13.425 27 12.5 28.275 12.5 30" fill="black"/>
</svg>
