<svg width="30" height="30" viewBox="0 0 30 30" fill="none" xmlns="http://www.w3.org/2000/svg">
<path d="M22.5 1.875C24.5625 1.875 26.25 3.55312 26.25 5.625V22.5C26.25 24.5625 24.5719 26.25 22.5 26.25H17.8125C17.5639 26.25 17.3254 26.1512 17.1496 25.9754C16.9738 25.7996 16.875 25.5611 16.875 25.3125C16.875 25.0639 16.9738 24.8254 17.1496 24.6496C17.3254 24.4738 17.5639 24.375 17.8125 24.375H22.5C22.9973 24.375 23.4742 24.1775 23.8258 23.8258C24.1775 23.4742 24.375 22.9973 24.375 22.5V5.625C24.375 5.12772 24.1775 4.65081 23.8258 4.29917C23.4742 3.94754 22.9973 3.75 22.5 3.75H17.8125C17.5639 3.75 17.3254 3.65123 17.1496 3.47541C16.9738 3.2996 16.875 3.06114 16.875 2.8125C16.875 2.56386 16.9738 2.3254 17.1496 2.14959C17.3254 1.97377 17.5639 1.875 17.8125 1.875H22.5Z" fill="white"/>
<path d="M7.7823 7.78172C7.95911 7.61095 8.19593 7.51645 8.44174 7.51859C8.68755 7.52073 8.92268 7.61932 9.0965 7.79314C9.27032 7.96696 9.36892 8.2021 9.37106 8.44791C9.37319 8.69372 9.2787 8.93053 9.10792 9.10735L5.07667 13.1386H17.8079C18.0566 13.1386 18.295 13.2374 18.4708 13.4132C18.6467 13.589 18.7454 13.8275 18.7454 14.0761C18.7454 14.3247 18.6467 14.5632 18.4708 14.739C18.295 14.9148 18.0566 15.0136 17.8079 15.0136H5.07667L9.10792 19.0448C9.2787 19.2217 9.37319 19.4585 9.37106 19.7043C9.36892 19.9501 9.27032 20.1852 9.0965 20.3591C8.92268 20.5329 8.68755 20.6315 8.44174 20.6336C8.19593 20.6357 7.95911 20.5412 7.7823 20.3705L2.1573 14.7455C1.98155 14.5697 1.88281 14.3313 1.88281 14.0827C1.88281 13.8341 1.98155 13.5957 2.1573 13.4198L7.7823 7.79485V7.78172Z" fill="white"/>
</svg>
