<svg width="60" height="60" viewBox="0 0 60 60" fill="none" xmlns="http://www.w3.org/2000/svg">
<g clip-path="url(#clip0_490_168)">
<path d="M57.1328 22.8562H60.0016V37.1438H57.1328V22.8562ZM54.2828 37.1438H57.1328V42.8625H54.2828V37.1438ZM54.2828 17.1375H57.1328V22.8562H54.2828V17.1375ZM51.4328 42.8625H54.2828V48.5625H51.4328V42.8625ZM51.4328 11.4375H54.2828V17.1375H51.4328V11.4375ZM48.5641 48.5625H51.4328V51.4313H48.5641V48.5625ZM48.5641 8.56875H51.4328V11.4375H48.5641V8.56875ZM42.8453 51.4313H48.5641V54.2813H42.8453V51.4313ZM42.8453 5.71875H48.5641V8.56875H42.8453V5.71875ZM39.9953 39.9938H42.8453V42.8625H39.9953V39.9938ZM17.1391 28.575H19.9891V25.7062H39.9953V28.575H42.8453V39.9938H45.7141V17.1375H42.8453V14.2875H39.9953V11.4375H19.9891V14.2875H17.1391V17.1375H14.2891V39.9938H17.1391V28.575ZM37.1453 54.2813H42.8453V57.15H37.1453V54.2813ZM37.1453 42.8625H39.9953V45.7125H37.1453V42.8625Z" fill="black"/>
<path d="M37.1437 31.425H39.9937V37.1437H37.1437V31.425ZM37.1437 2.85H42.8438V5.71875H37.1437V2.85ZM22.8562 57.15H37.1437V60H22.8562V57.15ZM22.8562 45.7125H37.1437V48.5625H22.8562V45.7125ZM25.7063 39.9937H34.275V42.8625H25.7063V39.9937ZM22.8562 0H37.1437V2.85H22.8562V0ZM17.1375 54.2813H22.8562V57.15H17.1375V54.2813ZM19.9875 42.8625H22.8562V45.7125H19.9875V42.8625ZM19.9875 31.425H22.8562V37.1437H19.9875V31.425ZM17.1375 2.85H22.8562V5.71875H17.1375V2.85ZM17.1375 39.9937H19.9875V42.8625H17.1375V39.9937ZM11.4188 51.4313H17.1375V54.2813H11.4188V51.4313ZM11.4188 5.71875H17.1375V8.56875H11.4188V5.71875ZM8.56875 48.5625H11.4188V51.4313H8.56875V48.5625ZM8.56875 8.56875H11.4188V11.4375H8.56875V8.56875ZM5.71875 42.8625H8.56875V48.5625H5.71875V42.8625ZM5.71875 11.4375H8.56875V17.1375H5.71875V11.4375ZM2.85 37.1437H5.71875V42.8625H2.85V37.1437ZM2.85 17.1375H5.71875V22.8562H2.85V17.1375ZM0 22.8562H2.85V37.1437H0V22.8562Z" fill="black"/>
<circle cx="50.5" cy="7.5" r="7.5" fill="#0B8A0B" fill-opacity="0.93"/>
</g>
<defs>
<clipPath id="clip0_490_168">
<rect width="60" height="60" fill="white"/>
</clipPath>
</defs>
</svg>
