<svg width="30" height="30" viewBox="0 0 30 30" fill="none" xmlns="http://www.w3.org/2000/svg">
<path d="M15 0C23.013 0 30 6.615 30 14.25C30 21.756 23.1705 27.663 15 27.663C13.2525 27.6642 11.5158 27.3877 9.855 26.844C9.159 27.519 8.9205 27.7485 7.443 29.1735C6.378 29.9775 5.376 30.2505 4.4805 29.7435C3.5775 29.2335 3.306 28.2405 3.4905 26.9325L4.0905 23.454C1.485 21.003 0 17.763 0 14.25C0 6.615 6.9855 0 15 0ZM15 2.1C8.121 2.1 2.1 7.8 2.1 14.25C2.1 17.3175 3.468 20.142 5.88 22.245L5.91 22.2705L6.3555 22.6575L6.255 23.2425L6.048 24.4485L5.9925 24.7695L5.565 27.2565C5.5405 27.424 5.52548 27.5928 5.52 27.762V27.9045C5.52 27.9115 5.519 27.9155 5.517 27.9165C5.5275 27.9015 5.7315 27.837 6.081 27.582L9.336 24.423L9.957 24.657C11.5702 25.2586 13.2783 25.5659 15 25.5645C22.074 25.5645 27.9 20.5245 27.9 14.25C27.9 7.8015 21.879 2.1 15 2.1ZM7.8405 11.7195C8.14269 11.7085 8.444 11.7584 8.72644 11.8665C9.00887 11.9745 9.26663 12.1383 9.48432 12.3482C9.70201 12.5581 9.87516 12.8097 9.99343 13.088C10.1117 13.3663 10.1726 13.6656 10.1726 13.968C10.1726 14.2704 10.1117 14.5697 9.99343 14.848C9.87516 15.1263 9.70201 15.3779 9.48432 15.5878C9.26663 15.7977 9.00887 15.9615 8.72644 16.0695C8.444 16.1776 8.14269 16.2275 7.8405 16.2165C7.25837 16.1952 6.70718 15.949 6.30287 15.5297C5.89856 15.1103 5.67264 14.5505 5.67264 13.968C5.67264 13.3855 5.89856 12.8257 6.30287 12.4063C6.70718 11.987 7.25837 11.7408 7.8405 11.7195ZM15.3375 11.7195C15.6397 11.7085 15.941 11.7584 16.2234 11.8665C16.5059 11.9745 16.7636 12.1383 16.9813 12.3482C17.199 12.5581 17.3722 12.8097 17.4904 13.088C17.6087 13.3663 17.6696 13.6656 17.6696 13.968C17.6696 14.2704 17.6087 14.5697 17.4904 14.848C17.3722 15.1263 17.199 15.3779 16.9813 15.5878C16.7636 15.7977 16.5059 15.9615 16.2234 16.0695C15.941 16.1776 15.6397 16.2275 15.3375 16.2165C14.7554 16.1952 14.2042 15.949 13.7999 15.5297C13.3956 15.1103 13.1696 14.5505 13.1696 13.968C13.1696 13.3855 13.3956 12.8257 13.7999 12.4063C14.2042 11.987 14.7554 11.7408 15.3375 11.7195ZM22.833 11.7195C23.1352 11.7085 23.4365 11.7584 23.7189 11.8665C24.0014 11.9745 24.2591 12.1383 24.4768 12.3482C24.6945 12.5581 24.8677 12.8097 24.9859 13.088C25.1042 13.3663 25.1651 13.6656 25.1651 13.968C25.1651 14.2704 25.1042 14.5697 24.9859 14.848C24.8677 15.1263 24.6945 15.3779 24.4768 15.5878C24.2591 15.7977 24.0014 15.9615 23.7189 16.0695C23.4365 16.1776 23.1352 16.2275 22.833 16.2165C22.2509 16.1952 21.6997 15.949 21.2954 15.5297C20.8911 15.1103 20.6651 14.5505 20.6651 13.968C20.6651 13.3855 20.8911 12.8257 21.2954 12.4063C21.6997 11.987 22.2509 11.7408 22.833 11.7195Z" fill="white"/>
</svg>
