<svg width="30" height="31" viewBox="0 0 30 31" fill="none" xmlns="http://www.w3.org/2000/svg">
<path d="M17.8148 14.0621C18.0634 14.0621 18.3019 14.1608 18.4777 14.3367C18.6535 14.5125 18.7523 14.7509 18.7523 14.9996C18.7523 15.2482 18.6535 15.4867 18.4777 15.6625C18.3019 15.8383 18.0634 15.9371 17.8148 15.9371L2.58594 19.2502L3.72032 14.9996L2.58594 10.7471L17.8148 14.0621Z" fill="url(#paint0_radial_490_164)"/>
<path d="M1.35734 0.0992605C1.19585 0.0183782 1.01444 -0.0141344 0.834907 0.00563174C0.655378 0.0253978 0.48538 0.0966012 0.345355 0.21068C0.20533 0.32476 0.101238 0.476857 0.0455968 0.648686C-0.0100448 0.820514 -0.0148676 1.00476 0.0317086 1.17926L2.84048 11.713C2.88689 11.8867 2.98226 12.0434 3.11524 12.1644C3.24822 12.2854 3.41319 12.3656 3.59049 12.3955L16.4437 14.5368C16.9668 14.6249 16.9668 15.3749 16.4437 15.463L3.59236 17.6043C3.41472 17.6338 3.24935 17.7139 3.11602 17.8349C2.98268 17.9559 2.88702 18.1128 2.84048 18.2868L0.0317086 28.8205C-0.0148676 28.995 -0.0100448 29.1793 0.0455968 29.3511C0.101238 29.5229 0.20533 29.675 0.345355 29.7891C0.48538 29.9032 0.655378 29.9744 0.834907 29.9941C1.01444 30.0139 1.19585 29.9814 1.35734 29.9005L29.4826 15.838C29.6381 15.7601 29.7688 15.6404 29.8602 15.4924C29.9516 15.3444 30 15.1738 30 14.9999C30 14.8259 29.9516 14.6554 29.8602 14.5074C29.7688 14.3594 29.6381 14.2397 29.4826 14.1618L1.35734 0.0992605Z" fill="url(#paint1_linear_490_164)"/>
<path d="M1.35734 1.09926C1.19585 1.01838 1.01444 0.985866 0.834907 1.00563C0.655378 1.0254 0.48538 1.0966 0.345355 1.21068C0.20533 1.32476 0.101238 1.47686 0.0455968 1.64869C-0.0100447 1.82051 -0.0148676 2.00476 0.0317086 2.17926L2.84048 12.713C2.88689 12.8867 2.98226 13.0434 3.11524 13.1644C3.24822 13.2854 3.41319 13.3656 3.59049 13.3955L16.4437 15.5368C16.9668 15.6249 16.9668 16.3749 16.4437 16.463L3.59236 18.6043C3.41472 18.6338 3.24935 18.7139 3.11602 18.8349C2.98268 18.9559 2.88702 19.1128 2.84048 19.2868L0.0317086 29.8205C-0.0148676 29.995 -0.0100447 30.1793 0.0455968 30.3511C0.101238 30.5229 0.20533 30.675 0.345355 30.7891C0.48538 30.9032 0.655378 30.9744 0.834907 30.9941C1.01444 31.0139 1.19585 30.9814 1.35734 30.9005L29.4826 16.838C29.6381 16.7601 29.7688 16.6404 29.8602 16.4924C29.9516 16.3444 30 16.1738 30 15.9999C30 15.8259 29.9516 15.6554 29.8602 15.5074C29.7688 15.3594 29.6381 15.2397 29.4826 15.1618L1.35734 1.09926Z" fill="url(#paint2_linear_490_164)"/>
<defs>
<radialGradient id="paint0_radial_490_164" cx="0" cy="0" r="1" gradientUnits="userSpaceOnUse" gradientTransform="translate(-0.93534 14.9996) scale(13.1251 1.73906)">
<stop stop-color="#0094F0"/>
<stop offset="1" stop-color="#2052CB"/>
</radialGradient>
<linearGradient id="paint1_linear_490_164" x1="-0.000165949" y1="-12.1876" x2="25.6929" y2="21.9526" gradientUnits="userSpaceOnUse">
<stop stop-color="#3BD5FF"/>
<stop offset="1" stop-color="#0094F0"/>
</linearGradient>
<linearGradient id="paint2_linear_490_164" x1="14.9999" y1="9.08676" x2="22.8018" y2="30.1956" gradientUnits="userSpaceOnUse">
<stop offset="0.125" stop-color="#DCF8FF" stop-opacity="0"/>
<stop offset="0.769" stop-color="#FF6CE8" stop-opacity="0.7"/>
</linearGradient>
</defs>
</svg>
