<svg width="30" height="30" viewBox="0 0 30 30" fill="none" xmlns="http://www.w3.org/2000/svg">
<path d="M25.7975 17.67L25.6738 16.4263L25.6325 16.43L25.5925 16.4375L25.7975 17.67ZM25.7975 17.67L25.9225 18.9138L25.9638 18.91L26.0038 18.9038L25.7975 17.67ZM20.7475 24.5225L21.5388 23.555L21.5288 23.5475L20.7475 24.5225ZM20.7475 24.5225L19.9563 25.49L19.9663 25.4988L20.7475 24.5225ZM9.25253 24.5225L8.46128 23.5563L8.44128 23.5725L8.42253 23.5888L9.25253 24.5225ZM9.25253 24.5225L10.0438 25.4913L10.0638 25.475L10.0825 25.4575L9.25253 24.5225ZM4.20128 12.33V11.08H4.13878L4.07753 11.0863L4.20128 12.33ZM4.20128 12.33V13.58H4.26378L4.32628 13.5738L4.20128 12.33ZM18.9138 4.07628C18.8932 3.83584 18.8636 3.59614 18.8275 3.35753C18.789 3.09484 18.7088 2.83998 18.59 2.60253L16.3688 3.75003C16.34 3.69378 16.3463 3.67378 16.3625 3.77253C16.3813 3.88378 16.3975 4.03878 16.4263 4.32628L18.9138 4.07628ZM19.0325 5.26378C19.1113 5.36628 19.085 5.41253 19.0413 5.16878C19 4.93628 18.9675 4.61003 18.9138 4.07628L16.425 4.32503C16.475 4.81753 16.5175 5.26003 16.5813 5.61253C16.6425 5.95003 16.75 6.39378 17.0438 6.77878L19.0325 5.26378ZM19.0325 5.26378L17.0438 6.77878C17.3113 7.12983 17.667 7.40381 18.0747 7.57287C18.4824 7.74192 18.9276 7.80003 19.365 7.74128L19.0325 5.26378ZM19.955 4.50753C19.6749 4.74429 19.3868 4.97151 19.0913 5.18878C18.8875 5.33003 18.9038 5.28003 19.0325 5.26378L19.365 7.74128C19.845 7.67628 20.235 7.43878 20.5175 7.24128C20.8113 7.03878 21.155 6.75628 21.5375 6.44253L19.955 4.50753ZM21.225 3.69503C20.9734 3.77873 20.7367 3.90194 20.5238 4.06003C20.3488 4.18503 20.1525 4.34628 19.955 4.50753L21.5375 6.44253C21.7613 6.26003 21.8825 6.16128 21.975 6.09628C22.0563 6.03753 22.045 6.05753 21.9863 6.07628L21.225 3.69503ZM22.98 3.78253C22.4249 3.54196 21.8013 3.51087 21.225 3.69503L21.9863 6.07628L22.98 3.78253ZM24.1625 4.71753C23.9942 4.54448 23.8204 4.37689 23.6413 4.21503C23.4448 4.03661 23.2212 3.89061 22.9788 3.78253L21.9863 6.07628C21.9288 6.05128 21.92 6.03128 21.995 6.09753C22.08 6.17253 22.1913 6.28128 22.395 6.48503L24.1625 4.71753ZM25.28 5.83503L24.1625 4.71753L22.395 6.48503L23.5125 7.60253L25.28 5.83503ZM26.215 7.01753C26.1069 6.77514 25.9609 6.5515 25.7825 6.35503C25.6206 6.17635 25.4531 6.00293 25.28 5.83503L23.5125 7.60378C23.7163 7.80753 23.825 7.91878 23.9 8.00378C23.9663 8.07878 23.9463 8.07003 23.9213 8.01253L26.215 7.01753ZM26.3025 8.77253C26.4867 8.19621 26.4556 7.57266 26.215 7.01753L23.9213 8.01253L26.3025 8.77253ZM25.49 10.0425C25.6453 9.85779 25.7945 9.66811 25.9375 9.47378C26.07 9.28878 26.2125 9.05878 26.3025 8.77253L23.9213 8.01253C23.94 7.95378 23.9588 7.94128 23.9013 8.02378C23.8363 8.11503 23.7388 8.23628 23.555 8.46003L25.49 10.0425ZM24.7338 10.9663C24.7175 11.095 24.6675 11.11 24.8088 10.9063C24.9425 10.7125 25.15 10.4575 25.49 10.0425L23.555 8.46003C23.2425 8.84253 22.9588 9.18628 22.755 9.48003C22.5588 9.76253 22.3213 10.1525 22.2563 10.6325L24.7338 10.9663ZM24.7338 10.9663L22.2563 10.6325C22.1975 11.07 22.2556 11.5152 22.4247 11.9229C22.5937 12.3306 22.8677 12.6863 23.2188 12.9538L24.7338 10.9663ZM25.9213 11.085C25.5558 11.0545 25.1914 11.0115 24.8288 10.9563C24.585 10.9125 24.6313 10.8875 24.7338 10.9663L23.2188 12.9538C23.6038 13.2475 24.0463 13.355 24.3863 13.4163C24.7375 13.4788 25.18 13.5225 25.6725 13.5725L25.9213 11.085ZM27.395 11.4075C27.1576 11.2888 26.9027 11.2086 26.64 11.17C26.4014 11.134 26.1617 11.1056 25.9213 11.085L25.6725 13.5725C25.8576 13.5888 26.0422 13.6096 26.2263 13.635C26.3263 13.6525 26.305 13.6588 26.2488 13.63L27.395 11.4075ZM28.5738 12.7113C28.3516 12.1483 27.9328 11.6851 27.395 11.4075L26.25 13.6325L28.5738 12.7113ZM28.7488 14.2088C28.7488 13.9538 28.7488 13.7 28.735 13.485C28.7224 13.2197 28.6675 12.9581 28.5725 12.71L26.25 13.6325C26.2275 13.5738 26.235 13.5538 26.2425 13.6538C26.25 13.7663 26.25 13.9225 26.25 14.2113L28.7488 14.2088ZM28.7488 15.7888V14.2088H26.2488V15.7888H28.7488ZM28.5738 17.2863C28.6838 17.0075 28.72 16.74 28.735 16.5113C28.7488 16.2975 28.7488 16.0438 28.7488 15.7888H26.2488C26.2488 16.0775 26.2488 16.2338 26.2413 16.3463C26.2338 16.4463 26.2263 16.4263 26.2488 16.3675L28.5738 17.2863ZM27.395 18.59C27.9328 18.3124 28.3516 17.8492 28.5738 17.2863L26.25 16.3688L27.395 18.59ZM25.9213 18.9125C26.1763 18.8875 26.4275 18.8625 26.64 18.8275C26.865 18.79 27.1275 18.7275 27.395 18.59L26.25 16.3688C26.305 16.34 26.3263 16.3463 26.2275 16.3625C26.0436 16.3889 25.8589 16.4102 25.6738 16.4263L25.9213 18.9125ZM24.735 19.0313C24.6313 19.11 24.585 19.085 24.8288 19.0413C25.0613 19 25.3875 18.9663 25.9213 18.9125L25.6725 16.425C25.1813 16.475 24.7375 16.5175 24.3863 16.5813C24.0475 16.6425 23.6038 16.75 23.2188 17.0438L24.735 19.0313ZM24.735 19.0313L23.2188 17.0438C22.8677 17.3113 22.5937 17.667 22.4247 18.0747C22.2556 18.4824 22.1975 18.9276 22.2563 19.365L24.735 19.0313ZM25.49 19.9538C25.2533 19.674 25.0261 19.3864 24.8088 19.0913C24.6675 18.8875 24.7188 18.9025 24.735 19.0313L22.2563 19.365C22.3213 19.845 22.5588 20.235 22.7563 20.5175C22.96 20.8113 23.2425 21.155 23.555 21.5375L25.49 19.9538ZM26.3025 21.2238C26.2187 20.9726 26.0955 20.7363 25.9375 20.5238C25.8125 20.3475 25.6513 20.1525 25.49 19.9538L23.555 21.5375C23.7375 21.7613 23.8363 21.8813 23.9013 21.9738C23.96 22.055 23.9413 22.045 23.9213 21.9863L26.3025 21.2238ZM26.215 22.98C26.4559 22.4245 26.487 21.8005 26.3025 21.2238L23.9213 21.9863L26.215 22.98ZM25.28 24.1625C25.4613 23.9813 25.64 23.8038 25.7825 23.6413C25.9325 23.4688 26.095 23.255 26.215 22.9788L23.9213 21.985C23.9463 21.9275 23.9663 21.92 23.9 21.995C23.825 22.08 23.7163 22.19 23.5125 22.395L25.28 24.1625ZM24.1625 25.2788L25.28 24.1625L23.5125 22.395L22.395 23.5113L24.1625 25.2788ZM22.98 26.215C23.2225 26.1066 23.4461 25.9601 23.6425 25.7813C23.8038 25.64 23.9825 25.46 24.1625 25.2788L22.395 23.5113C22.2653 23.6441 22.1319 23.7733 21.995 23.8988C21.92 23.9663 21.9288 23.9463 21.9863 23.9213L22.98 26.215ZM21.225 26.3025C21.8013 26.4867 22.4249 26.4556 22.98 26.215L21.9863 23.9213L21.225 26.3025ZM19.955 25.49C20.1525 25.6513 20.3475 25.8125 20.5238 25.9375C20.7088 26.0688 20.9388 26.2113 21.225 26.3025L21.9863 23.9213C22.045 23.94 22.0563 23.9588 21.9738 23.9013C21.8252 23.7899 21.6797 23.6745 21.5375 23.555L19.955 25.49ZM19.0325 24.735C18.9038 24.7163 18.8875 24.6663 19.0913 24.8075C19.285 24.9425 19.5388 25.1488 19.9538 25.4888L21.5375 23.555C21.155 23.2413 20.8113 22.9588 20.5175 22.755C20.235 22.5575 19.845 22.3213 19.365 22.2563L19.0325 24.735ZM19.0325 24.735L19.365 22.2563C18.9276 22.1975 18.4824 22.2556 18.0747 22.4247C17.667 22.5937 17.3113 22.8677 17.0438 23.2188L19.0325 24.735ZM18.9125 25.9213C18.9663 25.3875 19 25.06 19.0413 24.8288C19.085 24.585 19.11 24.63 19.0313 24.7338L17.0438 23.2175C16.75 23.6025 16.6425 24.0463 16.5813 24.385C16.5188 24.7375 16.4763 25.18 16.4263 25.6725L18.9125 25.9213ZM18.5888 27.395C18.7263 27.1275 18.7888 26.865 18.8263 26.64C18.8638 26.4275 18.8863 26.1763 18.9125 25.9213L16.4263 25.6725C16.4098 25.8581 16.3881 26.0419 16.3613 26.2263C16.345 26.3263 16.3388 26.305 16.3675 26.2488L18.5888 27.395ZM17.2875 28.5738C17.8495 28.3511 18.3118 27.9323 18.5888 27.395L16.3688 26.25L17.2875 28.5738ZM15.7875 28.7488C16.0438 28.7488 16.2975 28.7488 16.5125 28.735C16.74 28.72 17.0075 28.6863 17.2875 28.5738L16.3688 26.25C16.4275 26.2275 16.4475 26.235 16.3475 26.2425C16.1618 26.2502 15.9759 26.2527 15.79 26.25L15.7875 28.7488ZM14.2088 28.7488H15.7875L15.7888 26.2488H14.2088V28.7488ZM12.7113 28.5738C12.99 28.6838 13.2575 28.72 13.4863 28.735C13.7 28.7488 13.9538 28.7488 14.2088 28.7488V26.2488C13.92 26.2488 13.7638 26.2488 13.6513 26.2413C13.5513 26.2338 13.5713 26.2263 13.63 26.2488L12.7113 28.5738ZM11.4075 27.395C11.6851 27.9328 12.1483 28.3516 12.7113 28.5738L13.63 26.2488L11.4075 27.395ZM11.085 25.9213C11.11 26.1763 11.135 26.4275 11.17 26.64C11.2075 26.865 11.27 27.1275 11.4075 27.395L13.6325 26.25C13.6613 26.305 13.655 26.3263 13.6388 26.2275C13.6124 26.0436 13.5911 25.8589 13.575 25.6738L11.085 25.9213ZM10.9663 24.7338C10.8875 24.6313 10.9125 24.5838 10.9563 24.8288C10.9975 25.06 11.0313 25.3875 11.085 25.9213L13.5725 25.6725C13.5225 25.18 13.48 24.7375 13.4163 24.385C13.355 24.0475 13.2475 23.6038 12.9538 23.2188L10.9663 24.7338ZM10.9663 24.7338L12.9538 23.2188C12.6863 22.8677 12.3306 22.5937 11.9229 22.4247C11.5152 22.2556 11.07 22.1975 10.6325 22.2563L10.9663 24.7338ZM10.0425 25.49C10.4588 25.15 10.7125 24.9425 10.9063 24.8088C11.11 24.6675 11.095 24.7175 10.9663 24.7338L10.6325 22.2563C10.1525 22.3213 9.76253 22.5588 9.48003 22.7563C9.18628 22.9588 8.84253 23.2413 8.46003 23.555L10.0425 25.49ZM8.77253 26.3025C9.02415 26.2188 9.26086 26.0956 9.47378 25.9375C9.64878 25.8125 9.84503 25.6513 10.0425 25.49L8.46128 23.5563C8.31869 23.6757 8.17405 23.7912 8.02503 23.9025C7.94378 23.9613 7.95503 23.9425 8.01378 23.9225L8.77253 26.3025ZM7.01753 26.215C7.57266 26.4556 8.19621 26.4867 8.77253 26.3025L8.01128 23.9213L7.01753 26.215ZM5.83378 25.28C6.01503 25.4613 6.19378 25.64 6.35628 25.7825C6.52753 25.9325 6.74128 26.0963 7.01878 26.2163L8.01128 23.9213C8.06878 23.9463 8.07753 23.9663 8.00253 23.9C7.86562 23.7746 7.73224 23.6454 7.60253 23.5125L5.83378 25.28ZM4.71753 24.1625L5.83503 25.28L7.60253 23.5125L6.48503 22.395L4.71753 24.1625ZM3.78253 22.98C3.90128 23.255 4.06503 23.47 4.21503 23.6425C4.35753 23.8038 4.53628 23.9825 4.71753 24.1625L6.48503 22.395C6.35217 22.2653 6.22295 22.1319 6.09753 21.995C6.03128 21.92 6.05128 21.9288 6.07628 21.9863L3.78253 22.98ZM3.69503 21.225C3.51087 21.8013 3.54196 22.4249 3.78253 22.98L6.07628 21.9863L3.69503 21.225ZM4.50753 19.955C4.3523 20.1398 4.20305 20.3294 4.06003 20.5238C3.90194 20.7367 3.77873 20.9734 3.69503 21.225L6.07628 21.9863C6.05628 22.045 6.03878 22.0563 6.09628 21.9738C6.16128 21.8825 6.25878 21.7613 6.44253 21.5375L4.50753 19.955ZM5.26253 19.0313C5.28003 18.9025 5.33003 18.8875 5.18878 19.0913C5.05503 19.285 4.84753 19.54 4.50753 19.955L6.44253 21.5375C6.75503 21.155 7.03878 20.8113 7.24253 20.5175C7.43878 20.235 7.67628 19.845 7.74128 19.365L5.26253 19.0313ZM5.26253 19.0313L7.74128 19.365C7.80003 18.9276 7.74192 18.4824 7.57287 18.0747C7.40381 17.667 7.12983 17.3113 6.77878 17.0438L5.26253 19.0313ZM4.07503 18.9125C4.61003 18.9663 4.93753 19 5.16878 19.0413C5.41253 19.085 5.36628 19.11 5.26253 19.0313L6.77878 17.0438C6.39378 16.75 5.95128 16.6425 5.61128 16.5813C5.26003 16.5188 4.81753 16.475 4.32378 16.425L4.07503 18.9125ZM2.60253 18.59C2.87003 18.7275 3.13253 18.79 3.35753 18.8275C3.57003 18.8625 3.82128 18.8888 4.07628 18.9138L4.32378 16.425C4.13865 16.4093 3.95524 16.3885 3.77128 16.3625C3.67128 16.345 3.69253 16.3388 3.74878 16.3675L2.60253 18.59ZM1.42503 17.2875C1.64719 17.8505 2.06601 18.3137 2.60378 18.5913L3.75003 16.3688L1.42503 17.2875ZM1.25003 15.79C1.25003 16.045 1.25003 16.2988 1.26378 16.5138C1.27878 16.7413 1.31378 17.0088 1.42628 17.2888L3.75003 16.3675C3.77253 16.4263 3.76503 16.4463 3.75878 16.3463C3.7507 16.161 3.74778 15.9755 3.75003 15.79H1.25003ZM1.25003 14.21V15.79H3.75003V14.21H1.25003ZM1.42503 12.7113C1.33046 12.9594 1.27603 13.221 1.26378 13.4863C1.24878 13.7013 1.25003 13.955 1.25003 14.2113H3.75003C3.75003 13.9213 3.75003 13.765 3.75878 13.6525C3.76503 13.5525 3.77253 13.5725 3.75003 13.6313L1.42503 12.7113ZM2.60378 11.41C2.06646 11.687 1.6477 12.1493 1.42503 12.7113L3.75003 13.6313L2.60378 11.41ZM4.07753 11.085C3.82253 11.1113 3.57128 11.135 3.35878 11.1725C3.13378 11.21 2.87128 11.2725 2.60378 11.41L3.75003 13.6313C3.69378 13.66 3.67378 13.6538 3.77253 13.6375C3.95648 13.6111 4.14114 13.5899 4.32628 13.5738L4.07753 11.085ZM5.26503 10.9675C5.36878 10.8888 5.41503 10.9138 5.17003 10.9575C4.93878 10.9988 4.61128 11.0325 4.07753 11.0863L4.32628 13.5738C4.81753 13.5238 5.26128 13.4813 5.61378 13.4175C5.95253 13.3563 6.39628 13.2488 6.78128 12.955L5.26503 10.9675ZM5.26503 10.9675L6.78128 12.955C7.13211 12.6874 7.40584 12.3316 7.57467 11.9239C7.74351 11.5162 7.80142 11.0711 7.74253 10.6338L5.26503 10.9675ZM4.50878 10.0438C4.84878 10.4588 5.05628 10.7138 5.19128 10.9075C5.33253 11.1113 5.28253 11.0963 5.26503 10.9675L7.74253 10.6338C7.67753 10.1538 7.44128 9.76503 7.24378 9.48128C7.04003 9.18753 6.75628 8.84378 6.44378 8.46128L4.50878 10.0438ZM3.69628 8.77253C3.78753 9.06003 3.92878 9.28878 4.06128 9.47503C4.18628 9.65003 4.34753 9.84628 4.50878 10.0438L6.44378 8.46128C6.32431 8.31869 6.20885 8.17405 6.09753 8.02503C6.03878 7.94378 6.05878 7.95378 6.07753 8.01253L3.69628 8.77253ZM3.78378 7.01878C3.54352 7.57355 3.51243 8.19659 3.69628 8.77253L6.07753 8.01253L3.78378 7.01878ZM4.71878 5.83503C4.53753 6.01628 4.35878 6.19378 4.21628 6.35628C4.03786 6.55275 3.89186 6.77639 3.78378 7.01878L6.07753 8.01253C6.05253 8.07003 6.03253 8.07878 6.09878 8.00253C6.17378 7.91753 6.28253 7.80753 6.48628 7.60253L4.71878 5.83503ZM5.83628 4.71878L4.71878 5.83503L6.48628 7.60253L7.60503 6.48628L5.83628 4.71878ZM7.01878 3.78253C6.7763 3.89099 6.55266 4.03741 6.35628 4.21628C6.1776 4.37816 6.00418 4.54575 5.83628 4.71878L7.60503 6.48628C7.80878 6.28128 7.91878 6.17253 8.00378 6.09878C8.07878 6.03128 8.07003 6.05128 8.01253 6.07628L7.01878 3.78253ZM8.77378 3.69503C8.19746 3.51087 7.57391 3.54196 7.01878 3.78253L8.01253 6.07628L8.77378 3.69503ZM10.0425 4.50753C9.84503 4.34628 9.65128 4.18628 9.47503 4.06128C9.2622 3.90275 9.02548 3.77912 8.77378 3.69503L8.01253 6.07628C7.95378 6.05753 7.94253 6.03878 8.02503 6.09628C8.11628 6.16253 8.23753 6.26003 8.46128 6.44378L10.0425 4.50753ZM10.9675 5.26378C11.0963 5.28128 11.1113 5.33128 10.9075 5.19003C10.6124 4.97273 10.3248 4.74552 10.045 4.50878L8.46128 6.44378C8.84378 6.75628 9.18628 7.03878 9.48003 7.24378C9.76253 7.44003 10.1525 7.67628 10.6325 7.74128L10.9675 5.26378ZM10.9675 5.26378L10.6338 7.74128C11.0712 7.80003 11.5164 7.74192 11.9241 7.57287C12.3318 7.40381 12.6875 7.12983 12.955 6.77878L10.9675 5.26378ZM11.0863 4.07628C11.0325 4.61128 10.9988 4.93878 10.9575 5.17003C10.9138 5.41378 10.8888 5.36753 10.9675 5.26378L12.955 6.77878C13.2488 6.39378 13.3563 5.95128 13.4175 5.61253C13.48 5.26128 13.525 4.81753 13.5738 4.32503L11.0863 4.07628ZM11.4088 2.60378C11.29 2.84123 11.2099 3.09609 11.1713 3.35878C11.1363 3.57128 11.1113 3.82253 11.0863 4.07753L13.5738 4.32503C13.59 4.13995 13.6109 3.95656 13.6363 3.77253C13.6538 3.67253 13.66 3.69503 13.6313 3.75003L11.4088 2.60378ZM12.7125 1.42503C12.1496 1.64719 11.6864 2.06601 11.4088 2.60378L13.6313 3.75003L12.7125 1.42503ZM14.21 1.25003C13.955 1.25003 13.7013 1.25003 13.4863 1.26378C13.221 1.27603 12.9594 1.33046 12.7113 1.42503L13.6325 3.75003C13.5738 3.77253 13.5538 3.76503 13.6538 3.75878C13.7663 3.75128 13.9225 3.75003 14.2113 3.75003L14.21 1.25003ZM15.79 1.25003H14.21V3.75003H15.79V1.25003ZM17.2875 1.42503C17.0394 1.33046 16.7778 1.27603 16.5125 1.26378C16.3 1.24878 16.0463 1.25003 15.7913 1.25003V3.75003C16.08 3.75003 16.2363 3.75003 16.3488 3.75878C16.4488 3.76503 16.4275 3.77253 16.3688 3.75003L17.2875 1.42503ZM18.5913 2.60378C18.3137 2.06601 17.8505 1.64719 17.2875 1.42503L16.3688 3.75003L18.5913 2.60378ZM18.75 15C18.75 15.9946 18.3549 16.9484 17.6517 17.6517C16.9484 18.3549 15.9946 18.75 15 18.75V21.25C16.6576 21.25 18.2473 20.5915 19.4194 19.4194C20.5915 18.2473 21.25 16.6576 21.25 15H18.75ZM15 11.25C15.9946 11.25 16.9484 11.6451 17.6517 12.3484C18.3549 13.0516 18.75 14.0055 18.75 15H21.25C21.25 13.3424 20.5915 11.7527 19.4194 10.5806C18.2473 9.40851 16.6576 8.75003 15 8.75003V11.25ZM11.25 15C11.25 14.0055 11.6451 13.0516 12.3484 12.3484C13.0516 11.6451 14.0055 11.25 15 11.25V8.75003C13.3424 8.75003 11.7527 9.40851 10.5806 10.5806C9.40851 11.7527 8.75003 13.3424 8.75003 15H11.25ZM15 18.75C14.0055 18.75 13.0516 18.3549 12.3484 17.6517C11.6451 16.9484 11.25 15.9946 11.25 15H8.75003C8.75003 16.6576 9.40851 18.2473 10.5806 19.4194C11.7527 20.5915 13.3424 21.25 15 21.25V18.75Z" fill="white"/>
</svg>
